<?xml version="1.0"?>
<svg xmlns="http://www.w3.org/2000/svg" viewBox="0 0 192 192" width="512" height="512"><g id="_01-steer" data-name="01-steer"><path d="M79.827,110.825a8.009,8.009,0,0,0-8.288-6.019,300.192,300.192,0,0,0-37.386,4.767,8,8,0,0,0-6,10.53,72.115,72.115,0,0,0,48.013,45.106,8.077,8.077,0,0,0,10.175-8.327C83.991,127.507,80,111.493,79.827,110.825ZM47.234,123.532c5.966-.919,12.131-1.662,18.453-2.224.963,5.115,2.284,13.144,3.466,23.832A56.184,56.184,0,0,1,47.234,123.532Z"/><path d="M96,0a96,96,0,1,0,96,96A96.108,96.108,0,0,0,96,0Zm0,176a80,80,0,1,1,80-80A80.091,80.091,0,0,1,96,176Z"/><path d="M167.734,90.005A71.986,71.986,0,0,0,24.3,89.511a8,8,0,0,0,10.432,8.324A198.758,198.758,0,0,1,96,88a191.249,191.249,0,0,1,61.2,10.244,8,8,0,0,0,10.53-8.239ZM96,72a212.729,212.729,0,0,0-53.354,6.875A55.644,55.644,0,0,1,96,40a56.374,56.374,0,0,1,53.385,39.162A204.94,204.94,0,0,0,96,72Z"/><path d="M157.847,109.571a300.662,300.662,0,0,0-37.386-4.765,8.014,8.014,0,0,0-8.288,6.017c-.169.667-4.167,16.677-6.512,46.059a8.078,8.078,0,0,0,10.175,8.328A72.113,72.113,0,0,0,163.852,120.1a8,8,0,0,0-6-10.53Zm-35,35.571c1.182-10.691,2.505-18.722,3.468-23.834,6.324.562,12.49,1.3,18.455,2.222A56.184,56.184,0,0,1,122.844,145.142Z"/><circle cx="96" cy="104" r="8"/></g></svg>
