<?xml version="1.0"?>
<svg xmlns="http://www.w3.org/2000/svg" viewBox="0 0 192 192" width="512" height="512"><g id="_02-brake" data-name="02-brake"><path d="M104.5,16.422V8.006a8,8,0,0,0-7.953-8L96,0A104.215,104.215,0,0,0,.976,61.754a8,8,0,0,0,4.056,10.57l7.625,3.389A88.01,88.01,0,1,0,104.5,16.422Zm-16-.1V32.393A72.179,72.179,0,0,0,33.888,67.64L19.184,61.1A88.24,88.24,0,0,1,88.5,16.321ZM96,176A72.027,72.027,0,0,1,27.355,82.246l6.93,3.08A8.075,8.075,0,0,0,44.84,81.275,56.122,56.122,0,0,1,96,48a8.1,8.1,0,0,0,8.5-7.987V32.522A71.99,71.99,0,0,1,96,176Z"/><path d="M96,56a48,48,0,1,0,48,48A48.055,48.055,0,0,0,96,56Zm0,80a32,32,0,1,1,32-32A32.036,32.036,0,0,1,96,136Z"/><circle cx="80" cy="104" r="8"/><circle cx="112" cy="104" r="8"/><circle cx="96" cy="88" r="8"/><circle cx="96" cy="120" r="8"/></g></svg>
