<?xml version="1.0"?>
<svg xmlns="http://www.w3.org/2000/svg" viewBox="0 0 192 192" width="512" height="512"><g id="_03-tire" data-name="03-tire"><path d="M184,96c0-2.472-.108-4.919-.309-7.339l8.24-1.453-2.778-15.757L180.918,72.9a87.277,87.277,0,0,0-5.032-13.787l7.253-4.188-8-13.856-7.272,4.2a88.792,88.792,0,0,0-9.436-11.226l5.405-6.441L151.58,17.317l-5.4,6.435A88.092,88.092,0,0,0,133.487,16.4l2.865-7.87L121.316,3.053l-2.859,7.855A87.471,87.471,0,0,0,104,8.367V0H88V8.367a87.483,87.483,0,0,0-14.458,2.541L70.684,3.054,55.648,8.525,58.513,16.4A88.053,88.053,0,0,0,45.82,23.752l-5.4-6.435L28.164,27.6l5.405,6.441A88.792,88.792,0,0,0,24.133,45.27l-7.272-4.2-8,13.856,7.253,4.188A87.277,87.277,0,0,0,11.082,72.9L2.848,71.451.069,87.208l8.24,1.453C8.108,91.081,8,93.528,8,96s.108,4.919.309,7.339l-8.24,1.453,2.779,15.757,8.234-1.452a87.277,87.277,0,0,0,5.032,13.787l-7.253,4.188,8,13.856,7.272-4.2a88.792,88.792,0,0,0,9.436,11.226L28.164,164.4l12.257,10.286,5.4-6.435A88.053,88.053,0,0,0,58.513,175.6l-2.865,7.871,15.036,5.471,2.858-7.854A87.483,87.483,0,0,0,88,183.633V192h16v-8.367a87.471,87.471,0,0,0,14.457-2.541l2.859,7.855,15.036-5.473-2.865-7.87a88.092,88.092,0,0,0,12.693-7.356l5.4,6.435L163.836,164.4l-5.405-6.441a88.792,88.792,0,0,0,9.436-11.226l7.272,4.2,8-13.856-7.253-4.188a87.277,87.277,0,0,0,5.032-13.787l8.235,1.452,2.778-15.757-8.24-1.453C183.892,100.919,184,98.472,184,96Zm-16,0A72,72,0,1,1,96,24,72.081,72.081,0,0,1,168,96Z"/><path d="M96,48a48,48,0,1,0,48,48A48.055,48.055,0,0,0,96,48Zm0,80a32,32,0,1,1,32-32A32.036,32.036,0,0,1,96,128Z"/></g></svg>
