<svg height="512" viewBox="0 0 192 192" width="512" xmlns="http://www.w3.org/2000/svg"><g id="_07-lock" data-name="07-lock"><path d="m104 0h-64a32.036 32.036 0 0 0 -32 32v128a32.036 32.036 0 0 0 32 32h64a32.036 32.036 0 0 0 32-32v-128a32.036 32.036 0 0 0 -32-32zm16 160a16.019 16.019 0 0 1 -16 16h-64a16.019 16.019 0 0 1 -16-16v-128a16.019 16.019 0 0 1 16-16h64a16.019 16.019 0 0 1 16 16z"/><path d="m96 112v-8a24 24 0 0 0 -48 0v8a8 8 0 0 0 -8 8v32a8 8 0 0 0 8 8h48a8 8 0 0 0 8-8v-32a8 8 0 0 0 -8-8zm-32-8a8 8 0 0 1 16 0v8h-16zm24 40h-32v-16h32z"/><path d="m72 72a24 24 0 1 0 -24-24 24.027 24.027 0 0 0 24 24zm0-32a8 8 0 1 1 -8 8 8.009 8.009 0 0 1 8-8z"/><path d="m152.686 31.029-11.313 11.315a8 8 0 0 1 0 11.312l11.313 11.315a24 24 0 0 0 0-33.942z"/><path d="m169.657 14.059-11.314 11.314a32.035 32.035 0 0 1 0 45.254l11.314 11.314a48 48 0 0 0 0-67.882z"/></g></svg>