<?xml version="1.0"?>
<svg xmlns="http://www.w3.org/2000/svg" viewBox="0 0 192 192" width="512" height="512"><g id="_08-schedule" data-name="08-schedule"><path d="M184,16H152V0H136V16H104V0H88V16H56V0H40V16H8a8,8,0,0,0-8,8V184a8,8,0,0,0,8,8H184a8,8,0,0,0,8-8V24A8,8,0,0,0,184,16Zm-8,160H16V32H40v8H56V32H88v8h16V32h32v8h16V32h24Z"/><circle cx="64" cy="120" r="8"/><circle cx="128" cy="120" r="8"/><path d="M157.47,80.411l-15.8,5.268L135.761,62.06A8,8,0,0,0,128,56H64a8,8,0,0,0-7.761,6.06l-5.9,23.619-15.8-5.268L29.47,95.589,41.19,99.5l-6.847,6.847A8,8,0,0,0,32,112v48a8,8,0,0,0,8,8H64a8,8,0,0,0,8-8V144h48v16a8,8,0,0,0,8,8h24a8,8,0,0,0,8-8V112a8,8,0,0,0-2.343-5.657L150.81,99.5l11.72-3.907ZM144,128H48V115.314L59.314,104h73.373L144,115.314ZM70.246,72h51.508l4,16H66.246ZM56,152H48v-8h8Zm88,0h-8v-8h8Z"/></g></svg>
