<?xml version="1.0"?>
<svg xmlns="http://www.w3.org/2000/svg" viewBox="0 0 192 192" width="512" height="512"><g id="_09-piston" data-name="09-piston"><path d="M126.2,118.282a24,24,0,1,0,30.951,13.93A24.029,24.029,0,0,0,126.2,118.282ZM137.551,148.2a8,8,0,1,1,4.643-10.318A8.011,8.011,0,0,1,137.551,148.2Z"/><path d="M182.433,131.189,179.6,123.7a47.8,47.8,0,0,0-41.664-30.887L129.214,69.82c2.96,1.124,5.664,2.806,8.955,1.879A8.072,8.072,0,0,0,144,64V16h8V0H40V16h8V64a8.089,8.089,0,0,0,11.553,7.167c.118-.057,9.778-4.721,24.923-6.493L100.533,107a47.785,47.785,0,0,0-10.7,50.754l2.84,7.479a40,40,0,0,0,51.584,23.212l14.964-5.671A40.046,40.046,0,0,0,182.433,131.189ZM64,16h64V52.543a114.972,114.972,0,0,0-64,0Zm89.545,151.809-14.962,5.671a24.034,24.034,0,0,1-30.954-13.93l-2.839-7.476a31.872,31.872,0,0,1,10.117-36.5,8,8,0,0,0,2.532-9.125L101.39,64.15c3.157.173,6.132.485,8.9.888l14.633,38.579a7.989,7.989,0,0,0,7.946,5.149,31.894,31.894,0,0,1,31.772,20.605l2.833,7.487A24.028,24.028,0,0,1,153.545,167.809Z"/><circle cx="96" cy="32" r="8"/></g></svg>
