<svg height="512" viewBox="0 0 192 192" width="512" xmlns="http://www.w3.org/2000/svg"><g id="_10-fan" data-name="10-fan"><path d="m184 0h-176a8 8 0 0 0 -8 8v176a8 8 0 0 0 8 8h176a8 8 0 0 0 8-8v-176a8 8 0 0 0 -8-8zm-8 176h-160v-160h160z"/><path d="m96 168a72 72 0 1 0 -72-72 72.081 72.081 0 0 0 72 72zm0-128a56 56 0 1 1 -56 56 56.063 56.063 0 0 1 56-56z"/><path d="m73.507 137.858a22.676 22.676 0 0 0 11.381-3.108 34.844 34.844 0 0 0 13.549-14.873 23.81 23.81 0 0 0 4.226-.825c2.626 6.7 7.431 14.447 18.351 14.447a25.344 25.344 0 0 0 2.769-.157c10.833-1.189 19.743-9.759 22.174-21.327 2.254-10.728-1.9-20.6-10.841-25.76a34.286 34.286 0 0 0 -19.683-4.315 24.113 24.113 0 0 0 -2.81-3.226c4.856-6.079 9.51-14.976 1.828-25.445-6.446-8.788-18.323-12.222-29.558-8.542-10.42 3.411-16.893 11.946-16.893 22.273a34.332 34.332 0 0 0 6.1 19.192 23.836 23.836 0 0 0 -1.4 4.053c-7.691-1.162-17.715-.735-22.935 11.145-4.386 9.975-1.419 21.977 7.381 29.865a24.511 24.511 0 0 0 16.361 6.603zm22.493-49.858a8 8 0 1 1 -8 8 8.009 8.009 0 0 1 8-8zm34.3 20.726c-.834 3.97-3.94 8.237-8.262 8.712-2.468.273-3.136.345-5.875-8.324l-.026-.08a23.83 23.83 0 0 0 3.777-11.074 17.142 17.142 0 0 1 7.2 2.149c3.875 2.239 3.659 6.359 3.186 8.617zm-40.429-48.794c3.857-1.263 9.108-.706 11.679 2.8 1.47 2 1.865 2.541-4.265 9.241l-.052.057q-.612-.03-1.233-.03a23.854 23.854 0 0 0 -10.259 2.308 17.194 17.194 0 0 1 -1.741-7.308c0-4.477 3.679-6.35 5.871-7.068zm-25.457 47.9c1-2.275 1.265-2.888 10.14-.93l.084.019a24.15 24.15 0 0 0 7.713 8.807 17.177 17.177 0 0 1 -5.46 5.166c-3.882 2.24-7.345-.01-9.064-1.55-3.02-2.711-5.164-7.534-3.413-11.515z"/></g></svg>