<?xml version="1.0"?>
<svg xmlns="http://www.w3.org/2000/svg" viewBox="0 0 192 192" width="512" height="512"><g id="_11-wheel" data-name="11-wheel"><path d="M184,112H160a8,8,0,0,0-8,8v24H118.624a24,24,0,0,0-45.248,0H40V120a8,8,0,0,0-8-8H8a8,8,0,0,0-8,8v64a8,8,0,0,0,8,8H32a8,8,0,0,0,8-8V160H73.376a24,24,0,0,0,45.248,0H152v24a8,8,0,0,0,8,8h24a8,8,0,0,0,8-8V120A8,8,0,0,0,184,112ZM24,176H16V128h8Zm72-16a8,8,0,1,1,8-8A8.009,8.009,0,0,1,96,160Zm80,16h-8V128h8Z"/><path d="M45.47,95.589l24,8,5.06-15.178-6.651-2.217C73.636,80.178,83.719,72,96,72s22.369,8.182,28.122,14.193l-6.652,2.218,5.06,15.178,24-8A8,8,0,0,0,152,88V64H136V75.45C128.29,67.31,114.289,56,96,56S63.71,67.31,56,75.45V64H40V88A8,8,0,0,0,45.47,95.589Z"/></g></svg>
