<?xml version="1.0"?>
<svg xmlns="http://www.w3.org/2000/svg" viewBox="0 0 192 192" width="512" height="512"><g id="_12-oil" data-name="12-oil"><path d="M97.091,127.917a8.042,8.042,0,0,0,4.224-1.938l72-64A8,8,0,0,0,168,48H152a7.993,7.993,0,0,0-3.151.647L104,67.868V56a8,8,0,0,0-8-8H24A24.027,24.027,0,0,0,0,72V88a24.027,24.027,0,0,0,24,24v8a8,8,0,0,0,8,8H96A7.965,7.965,0,0,0,97.091,127.917Zm43.645-58.386L104,102.185V85.275ZM16,88V72a8.009,8.009,0,0,1,8-8V96A8.009,8.009,0,0,1,16,88ZM40,64H88v48H40Z"/><path d="M173.5,90.193a8,8,0,0,0-11.006,0C158.158,94.306,144,108.609,144,120a24,24,0,0,0,48,0C192,108.609,177.842,94.306,173.5,90.193ZM168,128a8.01,8.01,0,0,1-8-7.989c.107-2.093,3.545-7.272,8-12.418,4.46,5.151,7.9,10.33,8,12.407A8.009,8.009,0,0,1,168,128Z"/></g></svg>
