<?xml version="1.0"?>
<svg xmlns="http://www.w3.org/2000/svg" viewBox="0 0 192 192" width="512" height="512"><g id="_13-lift" data-name="13-lift"><path d="M192,104H0v16H16v72H32V154.806L59.845,120h72.31L160,154.806V192h16V120h16ZM32,129.194V120h7.355Zm128,0L152.645,120H160Z"/><path d="M80,80h32a24,24,0,0,0,48,0h8a8,8,0,0,0,8-8V40a8,8,0,0,0-8-8H150.246L143.761,6.06A8,8,0,0,0,136,0H80a8,8,0,0,0-6.3,3.075L50.147,33.217,22.06,40.239A8,8,0,0,0,16,48V72a8,8,0,0,0,8,8h8a24,24,0,0,0,48,0Zm56,8a8,8,0,1,1,8-8A8.009,8.009,0,0,1,136,88Zm24-24h-6.131a23.956,23.956,0,0,0-35.738,0H112V48h48ZM133.754,32H112V16h17.754ZM83.9,16H96V32H71.4ZM32,64V54.246L56.985,48H96V64H73.869a23.956,23.956,0,0,0-35.738,0ZM56,88a8,8,0,1,1,8-8A8.009,8.009,0,0,1,56,88Z"/></g></svg>
