<svg height="512" viewBox="0 0 192 192" width="512" xmlns="http://www.w3.org/2000/svg"><g id="_14-mirror" data-name="14-mirror"><path d="m186.986 94.96c-14.935-15.492-42.844-33.96-90.986-33.96s-76.051 18.468-90.986 33.96a8 8 0 0 0 .142 11.249l39.878 39.324a8.081 8.081 0 0 0 11.455-.226c3.467-3.701 14.258-12.307 39.511-12.307.747 0 1.479.009 2.2.023l-9.147 16.008 13.892 7.938 12.517-21.9c11.752 2.784 17.651 7.684 20.048 10.242a8.079 8.079 0 0 0 11.455.226l39.878-39.324a8 8 0 0 0 .143-11.253zm-46.013 34.012a58.619 58.619 0 0 0 -17.306-8.264l11.279-19.739-13.892-7.938-14 24.5c-3.436-.331-7.104-.531-11.054-.531-22.855 0-36.854 6.159-44.973 11.972l-28.727-28.329c13.819-11.789 36.875-23.643 73.7-23.643s59.881 11.854 73.7 23.643z"/><path d="m80 56h16v-8h8v-16h-8v-8h-16v8h-8v16h8z"/><path d="m160 64h16v-8h8v-16h-8v-8h-16v8h-8v16h8z"/><path d="m120 32h16v-8h8v-16h-8v-8h-16v8h-8v16h8z"/></g></svg>