<?xml version="1.0"?>
<svg xmlns="http://www.w3.org/2000/svg" viewBox="0 0 192 192" width="512" height="512"><g id="_16-filter" data-name="16-filter"><path d="M160,8a8,8,0,0,0-8-8H40a8,8,0,0,0-8,8V32a8.085,8.085,0,0,0,2.343,5.657L72.53,75.844l7.579,45.471A8,8,0,0,0,88,128h16a8,8,0,0,0,7.891-6.685l7.579-45.471,38.187-38.187A8.087,8.087,0,0,0,160,32ZM48,16h96v8H48Zm49.223,96H94.777L89.444,80h13.112Zm11.463-48H83.314l-24-24h73.372Z"/><path d="M101.5,138.193a8,8,0,0,0-11.006,0C86.158,142.306,72,156.608,72,168a24,24,0,0,0,48,0C120,156.608,105.842,142.306,101.5,138.193ZM96,176a8.009,8.009,0,0,1-8-7.988c.107-2.094,3.544-7.273,8-12.419,4.46,5.151,7.9,10.33,8,12.407A8.009,8.009,0,0,1,96,176Z"/></g></svg>
