<svg height="512" viewBox="0 0 192 192" width="512" xmlns="http://www.w3.org/2000/svg"><g id="_17-key" data-name="17-key"><path d="m120 104h-.592l-1.23-16h9.822v-16h-11.053l-1.167-15.171a8 8 0 0 0 -2.98-5.629l-4.824-3.858 3.966-3.967a8 8 0 0 0 2.319-6.269l-1.4-18.209a20.461 20.461 0 0 0 -40.861 1.564v83.539a32.036 32.036 0 0 0 -32 32v24a32.036 32.036 0 0 0 32 32h48a32.036 32.036 0 0 0 32-32v-24a32.036 32.036 0 0 0 -32-32zm-32-83.539a4.461 4.461 0 0 1 8.908-.343l1.119 14.541-7.684 7.685a8 8 0 0 0 -2.343 5.635zm0 27.56c0 .14 0 .281.012.421a8 8 0 0 0 2.988 5.805l9.091 7.273.809 10.48h-4.9v16h6.13l1.231 16h-15.361zm48 111.979a16.019 16.019 0 0 1 -16 16h-48a16.019 16.019 0 0 1 -16-16v-24a16.019 16.019 0 0 1 16-16h48a16.019 16.019 0 0 1 16 16z"/><path d="m80 128h32v16h-32z"/><path d="m80 152h32v16h-32z"/></g></svg>