<?xml version="1.0"?>
<svg xmlns="http://www.w3.org/2000/svg" viewBox="0 0 192 192" width="512" height="512"><g id="_18-coolant" data-name="18-coolant"><path d="M184,40H64V24h8V8H16V24h8V40H8a8,8,0,0,0-8,8V152a8,8,0,0,0,8,8H120v32h16V152a8,8,0,0,0-8-8H16V103.306c8.675-1.564,14.136-5.512,18.707-8.836C39.872,90.714,43.6,88,52,88s12.132,2.714,17.3,6.47C75.137,98.716,82.4,104,96.005,104s20.867-5.284,26.705-9.53C127.874,90.714,131.6,88,140,88s12.129,2.714,17.294,6.47c4.57,3.324,10.03,7.272,18.7,8.836V144H152a8,8,0,0,0-8,8v40h16V160h24a8,8,0,0,0,8-8V48A8,8,0,0,0,184,40ZM40,24h8V40H40ZM166.706,81.53C160.868,77.284,153.6,72,140,72s-20.866,5.284-26.7,9.53C108.134,85.286,104.4,88,96.005,88s-12.131-2.714-17.3-6.47C72.871,77.284,65.6,72,52,72S31.135,77.284,25.3,81.53c-3.167,2.3-5.8,4.211-9.3,5.345V56H176V86.875C172.505,85.741,169.873,83.833,166.706,81.53Z"/><circle cx="48" cy="120" r="8"/><circle cx="96" cy="128" r="8"/><circle cx="136" cy="112" r="8"/></g></svg>
